<mxfile host="app.diagrams.net" modified="2022-08-25T07:46:49.812Z" agent="5.0 (Windows NT 10.0; Win64; x64) AppleWebKit/537.36 (KHTML, like Gecko) Chrome/104.0.0.0 Safari/537.36" etag="JE1w3Iz612isJWixrBLE" version="20.2.7" type="github" pages="7">
  <diagram id="aS38bOo7lNqjb9k_LurA" name="As-Is">
    <mxGraphModel dx="1038" dy="623" grid="1" gridSize="10" guides="1" tooltips="1" connect="1" arrows="1" fold="1" page="1" pageScale="1" pageWidth="850" pageHeight="1100" math="0" shadow="0">
      <root>
        <mxCell id="0" />
        <mxCell id="1" parent="0" />
      </root>
    </mxGraphModel>
  </diagram>
  <diagram id="Zid4jbO9JPfs9PfdXdw7" name="Future Process">
    <mxGraphModel dx="1038" dy="623" grid="1" gridSize="10" guides="1" tooltips="1" connect="1" arrows="1" fold="1" page="1" pageScale="1" pageWidth="850" pageHeight="1100" math="0" shadow="0">
      <root>
        <mxCell id="0" />
        <mxCell id="1" parent="0" />
      </root>
    </mxGraphModel>
  </diagram>
  <diagram id="44BEF7LarJRwT24WuOkL" name="Context Diagram">
    <mxGraphModel dx="1038" dy="623" grid="1" gridSize="10" guides="1" tooltips="1" connect="1" arrows="1" fold="1" page="1" pageScale="1" pageWidth="850" pageHeight="1100" math="0" shadow="0">
      <root>
        <mxCell id="0" />
        <mxCell id="1" parent="0" />
        <mxCell id="WB6-4FlHmu9OLCnSyDYf-1" value="&lt;b&gt;&lt;font style=&quot;font-size: 10px;&quot;&gt;PATIENT&lt;/font&gt;&lt;/b&gt;" style="whiteSpace=wrap;html=1;aspect=fixed;fillColor=#dae8fc;strokeColor=#6c8ebf;gradientColor=#7EA6E0;" parent="1" vertex="1">
          <mxGeometry x="82" y="92" width="120" height="120" as="geometry" />
        </mxCell>
        <mxCell id="WB6-4FlHmu9OLCnSyDYf-2" value="&lt;span style=&quot;font-size: 10px;&quot;&gt;&lt;b&gt;HOSPITAL&lt;br&gt;MANAGEMENT&lt;br&gt;SYSTEM&lt;br&gt;(MAYO CLINIC)&lt;br&gt;&lt;/b&gt;&lt;/span&gt;" style="rounded=1;whiteSpace=wrap;html=1;fillColor=#d5e8d4;strokeColor=#82b366;fillStyle=auto;" parent="1" vertex="1">
          <mxGeometry x="320" y="91" width="110" height="440" as="geometry" />
        </mxCell>
        <mxCell id="WB6-4FlHmu9OLCnSyDYf-3" value="&lt;b&gt;&lt;font style=&quot;font-size: 10px;&quot;&gt;DOCTORS&lt;/font&gt;&lt;/b&gt;" style="whiteSpace=wrap;html=1;aspect=fixed;fillColor=#dae8fc;strokeColor=#6c8ebf;gradientColor=#7ea6e0;" parent="1" vertex="1">
          <mxGeometry x="81" y="251" width="120" height="120" as="geometry" />
        </mxCell>
        <mxCell id="WB6-4FlHmu9OLCnSyDYf-4" value="&lt;b&gt;&lt;font style=&quot;font-size: 10px;&quot;&gt;RECEPTION&lt;/font&gt;&lt;/b&gt;" style="whiteSpace=wrap;html=1;aspect=fixed;fillColor=#dae8fc;gradientColor=#7ea6e0;strokeColor=#6c8ebf;" parent="1" vertex="1">
          <mxGeometry x="548" y="91" width="120" height="120" as="geometry" />
        </mxCell>
        <mxCell id="WB6-4FlHmu9OLCnSyDYf-5" value="" style="endArrow=classic;html=1;rounded=0;exitX=1;exitY=0.25;exitDx=0;exitDy=0;entryX=-0.018;entryY=0.069;entryDx=0;entryDy=0;entryPerimeter=0;" parent="1" edge="1">
          <mxGeometry width="50" height="50" relative="1" as="geometry">
            <mxPoint x="202" y="132" as="sourcePoint" />
            <mxPoint x="318.02" y="131.36" as="targetPoint" />
          </mxGeometry>
        </mxCell>
        <mxCell id="WB6-4FlHmu9OLCnSyDYf-7" value="&lt;b&gt;&lt;font style=&quot;font-size: 10px;&quot;&gt;HOSPITAL STAFF&lt;/font&gt;&lt;/b&gt;" style="whiteSpace=wrap;html=1;aspect=fixed;fillColor=#dae8fc;strokeColor=#6c8ebf;gradientColor=#7ea6e0;" parent="1" vertex="1">
          <mxGeometry x="82" y="411" width="120" height="120" as="geometry" />
        </mxCell>
        <mxCell id="WB6-4FlHmu9OLCnSyDYf-8" value="&lt;b&gt;&lt;font style=&quot;font-size: 10px;&quot;&gt;NURSE/WARD BOY&lt;/font&gt;&lt;/b&gt;" style="whiteSpace=wrap;html=1;aspect=fixed;fillColor=#dae8fc;strokeColor=#6c8ebf;gradientColor=#7EA6E0;" parent="1" vertex="1">
          <mxGeometry x="548" y="251" width="120" height="120" as="geometry" />
        </mxCell>
        <mxCell id="WB6-4FlHmu9OLCnSyDYf-9" value="&lt;font style=&quot;font-size: 10px;&quot;&gt;Register&lt;br&gt;&lt;/font&gt;" style="text;html=1;strokeColor=none;fillColor=none;align=left;verticalAlign=middle;whiteSpace=wrap;rounded=0;fontStyle=1" parent="1" vertex="1">
          <mxGeometry x="222" y="112" width="90" height="20" as="geometry" />
        </mxCell>
        <mxCell id="WB6-4FlHmu9OLCnSyDYf-11" value="" style="endArrow=classic;html=1;rounded=0;exitX=1;exitY=0.25;exitDx=0;exitDy=0;entryX=-0.018;entryY=0.069;entryDx=0;entryDy=0;entryPerimeter=0;" parent="1" edge="1">
          <mxGeometry width="50" height="50" relative="1" as="geometry">
            <mxPoint x="201" y="448.6399999999999" as="sourcePoint" />
            <mxPoint x="317.02" y="448" as="targetPoint" />
          </mxGeometry>
        </mxCell>
        <mxCell id="WB6-4FlHmu9OLCnSyDYf-12" value="" style="endArrow=classic;html=1;rounded=0;exitX=1;exitY=0.25;exitDx=0;exitDy=0;entryX=-0.018;entryY=0.069;entryDx=0;entryDy=0;entryPerimeter=0;" parent="1" edge="1">
          <mxGeometry width="50" height="50" relative="1" as="geometry">
            <mxPoint x="203.98000000000002" y="280.64" as="sourcePoint" />
            <mxPoint x="320" y="280" as="targetPoint" />
          </mxGeometry>
        </mxCell>
        <mxCell id="WB6-4FlHmu9OLCnSyDYf-13" value="" style="endArrow=classic;html=1;rounded=0;fontSize=10;entryX=1.029;entryY=0.418;entryDx=0;entryDy=0;entryPerimeter=0;exitX=0.007;exitY=0.192;exitDx=0;exitDy=0;exitPerimeter=0;" parent="1" edge="1">
          <mxGeometry width="50" height="50" relative="1" as="geometry">
            <mxPoint x="545.8399999999999" y="274.03999999999996" as="sourcePoint" />
            <mxPoint x="430.19000000000005" y="274.91999999999996" as="targetPoint" />
          </mxGeometry>
        </mxCell>
        <mxCell id="WB6-4FlHmu9OLCnSyDYf-14" value="" style="endArrow=classic;html=1;rounded=0;fontSize=10;entryX=1.029;entryY=0.418;entryDx=0;entryDy=0;entryPerimeter=0;exitX=0;exitY=0.25;exitDx=0;exitDy=0;" parent="1" source="WB6-4FlHmu9OLCnSyDYf-4" edge="1">
          <mxGeometry width="50" height="50" relative="1" as="geometry">
            <mxPoint x="515.6499999999999" y="120.99999999999997" as="sourcePoint" />
            <mxPoint x="430" y="121.88" as="targetPoint" />
          </mxGeometry>
        </mxCell>
        <mxCell id="WB6-4FlHmu9OLCnSyDYf-15" value="" style="endArrow=classic;html=1;rounded=0;exitX=-0.011;exitY=0.209;exitDx=0;exitDy=0;entryX=1;entryY=0.75;entryDx=0;entryDy=0;exitPerimeter=0;" parent="1" edge="1">
          <mxGeometry width="50" height="50" relative="1" as="geometry">
            <mxPoint x="318.78999999999996" y="504.96000000000004" as="sourcePoint" />
            <mxPoint x="202" y="504" as="targetPoint" />
          </mxGeometry>
        </mxCell>
        <mxCell id="WB6-4FlHmu9OLCnSyDYf-16" value="" style="endArrow=classic;html=1;rounded=0;exitX=1;exitY=0.25;exitDx=0;exitDy=0;entryX=-0.018;entryY=0.069;entryDx=0;entryDy=0;entryPerimeter=0;" parent="1" edge="1">
          <mxGeometry width="50" height="50" relative="1" as="geometry">
            <mxPoint x="430" y="175.64" as="sourcePoint" />
            <mxPoint x="546.02" y="175" as="targetPoint" />
          </mxGeometry>
        </mxCell>
        <mxCell id="WB6-4FlHmu9OLCnSyDYf-17" value="" style="endArrow=classic;html=1;rounded=0;exitX=1;exitY=0.25;exitDx=0;exitDy=0;entryX=-0.018;entryY=0.069;entryDx=0;entryDy=0;entryPerimeter=0;" parent="1" edge="1">
          <mxGeometry width="50" height="50" relative="1" as="geometry">
            <mxPoint x="430" y="346.6399999999999" as="sourcePoint" />
            <mxPoint x="546.02" y="346" as="targetPoint" />
          </mxGeometry>
        </mxCell>
        <mxCell id="WB6-4FlHmu9OLCnSyDYf-18" value="" style="endArrow=classic;html=1;rounded=0;exitX=-0.011;exitY=0.209;exitDx=0;exitDy=0;entryX=1;entryY=0.75;entryDx=0;entryDy=0;exitPerimeter=0;" parent="1" edge="1">
          <mxGeometry width="50" height="50" relative="1" as="geometry">
            <mxPoint x="317.78999999999996" y="362.96000000000004" as="sourcePoint" />
            <mxPoint x="201" y="362" as="targetPoint" />
          </mxGeometry>
        </mxCell>
        <mxCell id="WB6-4FlHmu9OLCnSyDYf-20" value="&lt;span style=&quot;font-size: 10px;&quot;&gt;Test Report&lt;br&gt;&lt;/span&gt;" style="text;html=1;strokeColor=none;fillColor=none;align=left;verticalAlign=middle;whiteSpace=wrap;rounded=0;fontStyle=1" parent="1" vertex="1">
          <mxGeometry x="218" y="340" width="102" height="21" as="geometry" />
        </mxCell>
        <mxCell id="WB6-4FlHmu9OLCnSyDYf-21" value="&lt;span style=&quot;font-size: 10px;&quot;&gt;...&lt;/span&gt;" style="text;html=1;strokeColor=none;fillColor=none;align=left;verticalAlign=middle;whiteSpace=wrap;rounded=0;fontStyle=1" parent="1" vertex="1">
          <mxGeometry x="218" y="421" width="90" height="29" as="geometry" />
        </mxCell>
        <mxCell id="WB6-4FlHmu9OLCnSyDYf-22" value="&lt;span style=&quot;font-size: 10px;&quot;&gt;Report&lt;/span&gt;" style="text;html=1;strokeColor=none;fillColor=none;align=left;verticalAlign=middle;whiteSpace=wrap;rounded=0;fontStyle=1" parent="1" vertex="1">
          <mxGeometry x="218" y="471" width="90" height="29" as="geometry" />
        </mxCell>
        <mxCell id="WB6-4FlHmu9OLCnSyDYf-23" value="&lt;span style=&quot;font-size: 10px;&quot;&gt;Make booking&lt;/span&gt;" style="text;html=1;strokeColor=none;fillColor=none;align=left;verticalAlign=middle;whiteSpace=wrap;rounded=0;fontStyle=1" parent="1" vertex="1">
          <mxGeometry x="450" y="95" width="90" height="29" as="geometry" />
        </mxCell>
        <mxCell id="WB6-4FlHmu9OLCnSyDYf-24" value="&lt;span style=&quot;font-size: 10px;&quot;&gt;Doctors availability&lt;/span&gt;" style="text;html=1;strokeColor=none;fillColor=none;align=left;verticalAlign=middle;whiteSpace=wrap;rounded=0;fontStyle=1" parent="1" vertex="1">
          <mxGeometry x="450" y="151" width="100" height="29" as="geometry" />
        </mxCell>
        <mxCell id="WB6-4FlHmu9OLCnSyDYf-26" value="&lt;span style=&quot;font-size: 10px;&quot;&gt;Patient stay&lt;br&gt;&lt;/span&gt;" style="text;html=1;strokeColor=none;fillColor=none;align=left;verticalAlign=middle;whiteSpace=wrap;rounded=0;fontStyle=1" parent="1" vertex="1">
          <mxGeometry x="450" y="321" width="90" height="29" as="geometry" />
        </mxCell>
        <mxCell id="WB6-4FlHmu9OLCnSyDYf-27" value="&lt;span style=&quot;font-size: 10px;&quot;&gt;&lt;b&gt;LAB &amp;amp; RADIATION&lt;br&gt;DEPARTMENT&lt;br&gt;&lt;/b&gt;&lt;/span&gt;" style="whiteSpace=wrap;html=1;aspect=fixed;fillColor=#dae8fc;strokeColor=#6c8ebf;gradientColor=#7EA6E0;" parent="1" vertex="1">
          <mxGeometry x="548" y="411" width="120" height="120" as="geometry" />
        </mxCell>
        <mxCell id="WB6-4FlHmu9OLCnSyDYf-28" value="" style="endArrow=classic;html=1;rounded=0;exitX=1;exitY=0.25;exitDx=0;exitDy=0;entryX=-0.018;entryY=0.069;entryDx=0;entryDy=0;entryPerimeter=0;" parent="1" edge="1">
          <mxGeometry width="50" height="50" relative="1" as="geometry">
            <mxPoint x="431.98" y="439.6399999999999" as="sourcePoint" />
            <mxPoint x="548" y="439" as="targetPoint" />
          </mxGeometry>
        </mxCell>
        <mxCell id="WB6-4FlHmu9OLCnSyDYf-29" value="" style="endArrow=classic;html=1;rounded=0;exitX=-0.011;exitY=0.209;exitDx=0;exitDy=0;entryX=1;entryY=0.75;entryDx=0;entryDy=0;exitPerimeter=0;" parent="1" edge="1">
          <mxGeometry width="50" height="50" relative="1" as="geometry">
            <mxPoint x="546.79" y="500.96000000000004" as="sourcePoint" />
            <mxPoint x="430" y="500" as="targetPoint" />
          </mxGeometry>
        </mxCell>
        <mxCell id="WB6-4FlHmu9OLCnSyDYf-30" value="&lt;span style=&quot;font-size: 10px;&quot;&gt;Test Prescription&lt;br&gt;&lt;/span&gt;" style="text;html=1;strokeColor=none;fillColor=none;align=left;verticalAlign=middle;whiteSpace=wrap;rounded=0;fontStyle=1" parent="1" vertex="1">
          <mxGeometry x="450" y="407" width="90" height="29" as="geometry" />
        </mxCell>
        <mxCell id="WB6-4FlHmu9OLCnSyDYf-31" value="&lt;span style=&quot;font-size: 10px;&quot;&gt;Lab reports&lt;/span&gt;" style="text;html=1;strokeColor=none;fillColor=none;align=left;verticalAlign=middle;whiteSpace=wrap;rounded=0;fontStyle=1" parent="1" vertex="1">
          <mxGeometry x="448" y="470.5" width="90" height="29" as="geometry" />
        </mxCell>
        <mxCell id="Hol5I32fqQDs47LAg2-i-1" value="" style="endArrow=classic;html=1;rounded=0;exitX=1;exitY=0.25;exitDx=0;exitDy=0;entryX=-0.018;entryY=0.069;entryDx=0;entryDy=0;entryPerimeter=0;" edge="1" parent="1">
          <mxGeometry width="50" height="50" relative="1" as="geometry">
            <mxPoint x="203" y="161" as="sourcePoint" />
            <mxPoint x="319.02" y="160.36" as="targetPoint" />
          </mxGeometry>
        </mxCell>
        <mxCell id="Hol5I32fqQDs47LAg2-i-2" value="" style="endArrow=classic;html=1;rounded=0;exitX=1;exitY=0.25;exitDx=0;exitDy=0;entryX=-0.018;entryY=0.069;entryDx=0;entryDy=0;entryPerimeter=0;" edge="1" parent="1">
          <mxGeometry width="50" height="50" relative="1" as="geometry">
            <mxPoint x="203" y="187" as="sourcePoint" />
            <mxPoint x="319.02" y="186.36" as="targetPoint" />
          </mxGeometry>
        </mxCell>
        <mxCell id="Hol5I32fqQDs47LAg2-i-3" value="&lt;font style=&quot;font-size: 10px;&quot;&gt;Schedule Appts&lt;br&gt;&lt;/font&gt;" style="text;html=1;strokeColor=none;fillColor=none;align=left;verticalAlign=middle;whiteSpace=wrap;rounded=0;fontStyle=1" vertex="1" parent="1">
          <mxGeometry x="220" y="132" width="90" height="44" as="geometry" />
        </mxCell>
        <mxCell id="Hol5I32fqQDs47LAg2-i-4" value="&lt;font style=&quot;font-size: 10px;&quot;&gt;Provide Insurance&lt;br&gt;&lt;/font&gt;" style="text;html=1;strokeColor=none;fillColor=none;align=left;verticalAlign=middle;whiteSpace=wrap;rounded=0;fontStyle=1" vertex="1" parent="1">
          <mxGeometry x="220" y="162" width="90" height="33" as="geometry" />
        </mxCell>
        <mxCell id="Hol5I32fqQDs47LAg2-i-7" value="" style="endArrow=classic;html=1;rounded=0;exitX=1;exitY=0.25;exitDx=0;exitDy=0;entryX=-0.018;entryY=0.069;entryDx=0;entryDy=0;entryPerimeter=0;" edge="1" parent="1">
          <mxGeometry width="50" height="50" relative="1" as="geometry">
            <mxPoint x="204" y="306" as="sourcePoint" />
            <mxPoint x="320.02" y="305.36" as="targetPoint" />
          </mxGeometry>
        </mxCell>
        <mxCell id="Hol5I32fqQDs47LAg2-i-8" value="" style="endArrow=classic;html=1;rounded=0;exitX=1;exitY=0.25;exitDx=0;exitDy=0;entryX=-0.018;entryY=0.069;entryDx=0;entryDy=0;entryPerimeter=0;" edge="1" parent="1">
          <mxGeometry width="50" height="50" relative="1" as="geometry">
            <mxPoint x="204" y="332" as="sourcePoint" />
            <mxPoint x="320.02" y="331.36" as="targetPoint" />
          </mxGeometry>
        </mxCell>
        <mxCell id="Hol5I32fqQDs47LAg2-i-9" value="&lt;font style=&quot;font-size: 10px;&quot;&gt;Assess &amp;amp; prescribe&lt;br&gt;&lt;/font&gt;" style="text;html=1;strokeColor=none;fillColor=none;align=left;verticalAlign=middle;whiteSpace=wrap;rounded=0;fontStyle=1" vertex="1" parent="1">
          <mxGeometry x="220" y="260" width="100" height="20" as="geometry" />
        </mxCell>
        <mxCell id="Hol5I32fqQDs47LAg2-i-10" value="&lt;font style=&quot;font-size: 10px;&quot;&gt;Request for test&lt;br&gt;&lt;/font&gt;" style="text;html=1;strokeColor=none;fillColor=none;align=left;verticalAlign=middle;whiteSpace=wrap;rounded=0;fontStyle=1" vertex="1" parent="1">
          <mxGeometry x="219" y="285" width="90" height="20" as="geometry" />
        </mxCell>
        <mxCell id="Hol5I32fqQDs47LAg2-i-11" value="&lt;font style=&quot;font-size: 10px;&quot;&gt;Note to next staff&lt;br&gt;&lt;/font&gt;" style="text;html=1;strokeColor=none;fillColor=none;align=left;verticalAlign=middle;whiteSpace=wrap;rounded=0;fontStyle=1" vertex="1" parent="1">
          <mxGeometry x="220" y="312" width="90" height="20" as="geometry" />
        </mxCell>
        <mxCell id="Hol5I32fqQDs47LAg2-i-12" value="" style="endArrow=classic;html=1;rounded=0;fontSize=10;entryX=1.029;entryY=0.418;entryDx=0;entryDy=0;entryPerimeter=0;exitX=0;exitY=0.25;exitDx=0;exitDy=0;" edge="1" parent="1">
          <mxGeometry width="50" height="50" relative="1" as="geometry">
            <mxPoint x="547" y="147" as="sourcePoint" />
            <mxPoint x="429" y="147.88" as="targetPoint" />
          </mxGeometry>
        </mxCell>
        <mxCell id="Hol5I32fqQDs47LAg2-i-13" value="&lt;span style=&quot;font-size: 10px;&quot;&gt;Open patient file&lt;/span&gt;" style="text;html=1;strokeColor=none;fillColor=none;align=left;verticalAlign=middle;whiteSpace=wrap;rounded=0;fontStyle=1" vertex="1" parent="1">
          <mxGeometry x="450" y="123" width="90" height="29" as="geometry" />
        </mxCell>
        <mxCell id="Hol5I32fqQDs47LAg2-i-14" value="" style="endArrow=classic;html=1;rounded=0;fontSize=10;entryX=1.029;entryY=0.418;entryDx=0;entryDy=0;entryPerimeter=0;exitX=0.007;exitY=0.192;exitDx=0;exitDy=0;exitPerimeter=0;" edge="1" parent="1">
          <mxGeometry width="50" height="50" relative="1" as="geometry">
            <mxPoint x="546.8399999999999" y="300.03999999999996" as="sourcePoint" />
            <mxPoint x="431.19000000000005" y="300.91999999999996" as="targetPoint" />
          </mxGeometry>
        </mxCell>
        <mxCell id="Hol5I32fqQDs47LAg2-i-16" value="&lt;span style=&quot;font-size: 10px;&quot;&gt;Schedules&lt;/span&gt;" style="text;html=1;strokeColor=none;fillColor=none;align=left;verticalAlign=middle;whiteSpace=wrap;rounded=0;fontStyle=1" vertex="1" parent="1">
          <mxGeometry x="450" y="250" width="100" height="29" as="geometry" />
        </mxCell>
        <mxCell id="Hol5I32fqQDs47LAg2-i-17" value="&lt;span style=&quot;font-size: 10px;&quot;&gt;Doctor notes&lt;/span&gt;" style="text;html=1;strokeColor=none;fillColor=none;align=left;verticalAlign=middle;whiteSpace=wrap;rounded=0;fontStyle=1" vertex="1" parent="1">
          <mxGeometry x="451" y="275" width="100" height="29" as="geometry" />
        </mxCell>
        <mxCell id="Hol5I32fqQDs47LAg2-i-18" value="" style="endArrow=classic;html=1;rounded=0;fontSize=10;entryX=1.029;entryY=0.418;entryDx=0;entryDy=0;entryPerimeter=0;exitX=0.007;exitY=0.192;exitDx=0;exitDy=0;exitPerimeter=0;" edge="1" parent="1">
          <mxGeometry width="50" height="50" relative="1" as="geometry">
            <mxPoint x="546.8399999999999" y="324.03999999999996" as="sourcePoint" />
            <mxPoint x="431.19000000000005" y="324.91999999999996" as="targetPoint" />
          </mxGeometry>
        </mxCell>
        <mxCell id="Hol5I32fqQDs47LAg2-i-19" value="&lt;span style=&quot;font-size: 10px;&quot;&gt;Patient vitals&lt;/span&gt;" style="text;html=1;strokeColor=none;fillColor=none;align=left;verticalAlign=middle;whiteSpace=wrap;rounded=0;fontStyle=1" vertex="1" parent="1">
          <mxGeometry x="452" y="302" width="100" height="29" as="geometry" />
        </mxCell>
        <mxCell id="Hol5I32fqQDs47LAg2-i-20" value="&lt;span style=&quot;font-size: 10px;&quot;&gt;Bed occupancy&lt;br&gt;&lt;/span&gt;" style="text;html=1;strokeColor=none;fillColor=none;align=left;verticalAlign=middle;whiteSpace=wrap;rounded=0;fontStyle=1" vertex="1" parent="1">
          <mxGeometry x="449" y="347" width="90" height="29" as="geometry" />
        </mxCell>
        <mxCell id="Hol5I32fqQDs47LAg2-i-22" value="" style="endArrow=classic;html=1;rounded=0;exitX=1;exitY=0.25;exitDx=0;exitDy=0;entryX=-0.018;entryY=0.069;entryDx=0;entryDy=0;entryPerimeter=0;" edge="1" parent="1">
          <mxGeometry width="50" height="50" relative="1" as="geometry">
            <mxPoint x="431" y="368.6399999999999" as="sourcePoint" />
            <mxPoint x="547.02" y="368" as="targetPoint" />
          </mxGeometry>
        </mxCell>
      </root>
    </mxGraphModel>
  </diagram>
  <diagram id="6IGwz1adw142WHGaFlqu" name="Activity Diagram">
    <mxGraphModel dx="1038" dy="579" grid="1" gridSize="10" guides="1" tooltips="1" connect="1" arrows="1" fold="1" page="1" pageScale="1" pageWidth="850" pageHeight="1100" math="0" shadow="0">
      <root>
        <mxCell id="0" />
        <mxCell id="1" parent="0" />
      </root>
    </mxGraphModel>
  </diagram>
  <diagram id="UELuT0qamDBR9vZa1eJS" name="ER Diagram">
    <mxGraphModel dx="782" dy="513" grid="1" gridSize="10" guides="1" tooltips="1" connect="1" arrows="1" fold="1" page="1" pageScale="1" pageWidth="850" pageHeight="1100" math="0" shadow="0">
      <root>
        <mxCell id="0" />
        <mxCell id="1" parent="0" />
        <mxCell id="sWENWEqS_RTDNvCQsxlW-1" value="PATIENTS" style="swimlane;fontStyle=0;childLayout=stackLayout;horizontal=1;startSize=26;horizontalStack=0;resizeParent=1;resizeParentMax=0;resizeLast=0;collapsible=1;marginBottom=0;align=center;fontSize=14;" parent="1" vertex="1">
          <mxGeometry x="40" y="230" width="160" height="146" as="geometry" />
        </mxCell>
        <mxCell id="sWENWEqS_RTDNvCQsxlW-2" value="patient_id" style="text;strokeColor=none;fillColor=none;spacingLeft=4;spacingRight=4;overflow=hidden;rotatable=0;points=[[0,0.5],[1,0.5]];portConstraint=eastwest;fontSize=12;" parent="sWENWEqS_RTDNvCQsxlW-1" vertex="1">
          <mxGeometry y="26" width="160" height="30" as="geometry" />
        </mxCell>
        <mxCell id="sWENWEqS_RTDNvCQsxlW-3" value="name" style="text;strokeColor=none;fillColor=none;spacingLeft=4;spacingRight=4;overflow=hidden;rotatable=0;points=[[0,0.5],[1,0.5]];portConstraint=eastwest;fontSize=12;" parent="sWENWEqS_RTDNvCQsxlW-1" vertex="1">
          <mxGeometry y="56" width="160" height="30" as="geometry" />
        </mxCell>
        <mxCell id="sWENWEqS_RTDNvCQsxlW-4" value="address" style="text;strokeColor=none;fillColor=none;spacingLeft=4;spacingRight=4;overflow=hidden;rotatable=0;points=[[0,0.5],[1,0.5]];portConstraint=eastwest;fontSize=12;" parent="sWENWEqS_RTDNvCQsxlW-1" vertex="1">
          <mxGeometry y="86" width="160" height="30" as="geometry" />
        </mxCell>
        <mxCell id="xt4BQ-3MkPphJAfZo2jK-13" value="contact" style="text;strokeColor=none;fillColor=none;spacingLeft=4;spacingRight=4;overflow=hidden;rotatable=0;points=[[0,0.5],[1,0.5]];portConstraint=eastwest;fontSize=12;" vertex="1" parent="sWENWEqS_RTDNvCQsxlW-1">
          <mxGeometry y="116" width="160" height="30" as="geometry" />
        </mxCell>
        <mxCell id="sWENWEqS_RTDNvCQsxlW-5" value="DOCTORS" style="swimlane;fontStyle=0;childLayout=stackLayout;horizontal=1;startSize=26;horizontalStack=0;resizeParent=1;resizeParentMax=0;resizeLast=0;collapsible=1;marginBottom=0;align=center;fontSize=14;" parent="1" vertex="1">
          <mxGeometry x="40" y="50" width="160" height="116" as="geometry" />
        </mxCell>
        <mxCell id="sWENWEqS_RTDNvCQsxlW-6" value="doctor_id" style="text;strokeColor=none;fillColor=none;spacingLeft=4;spacingRight=4;overflow=hidden;rotatable=0;points=[[0,0.5],[1,0.5]];portConstraint=eastwest;fontSize=12;" parent="sWENWEqS_RTDNvCQsxlW-5" vertex="1">
          <mxGeometry y="26" width="160" height="30" as="geometry" />
        </mxCell>
        <mxCell id="sWENWEqS_RTDNvCQsxlW-7" value="name" style="text;strokeColor=none;fillColor=none;spacingLeft=4;spacingRight=4;overflow=hidden;rotatable=0;points=[[0,0.5],[1,0.5]];portConstraint=eastwest;fontSize=12;" parent="sWENWEqS_RTDNvCQsxlW-5" vertex="1">
          <mxGeometry y="56" width="160" height="30" as="geometry" />
        </mxCell>
        <mxCell id="sWENWEqS_RTDNvCQsxlW-8" value="address" style="text;strokeColor=none;fillColor=none;spacingLeft=4;spacingRight=4;overflow=hidden;rotatable=0;points=[[0,0.5],[1,0.5]];portConstraint=eastwest;fontSize=12;" parent="sWENWEqS_RTDNvCQsxlW-5" vertex="1">
          <mxGeometry y="86" width="160" height="30" as="geometry" />
        </mxCell>
        <mxCell id="sWENWEqS_RTDNvCQsxlW-9" value="APPONTMENTS" style="swimlane;fontStyle=0;childLayout=stackLayout;horizontal=1;startSize=26;horizontalStack=0;resizeParent=1;resizeParentMax=0;resizeLast=0;collapsible=1;marginBottom=0;align=center;fontSize=14;" parent="1" vertex="1">
          <mxGeometry x="40" y="420" width="160" height="116" as="geometry" />
        </mxCell>
        <mxCell id="sWENWEqS_RTDNvCQsxlW-10" value="Item 1" style="text;strokeColor=none;fillColor=none;spacingLeft=4;spacingRight=4;overflow=hidden;rotatable=0;points=[[0,0.5],[1,0.5]];portConstraint=eastwest;fontSize=12;" parent="sWENWEqS_RTDNvCQsxlW-9" vertex="1">
          <mxGeometry y="26" width="160" height="30" as="geometry" />
        </mxCell>
        <mxCell id="sWENWEqS_RTDNvCQsxlW-11" value="Item 2" style="text;strokeColor=none;fillColor=none;spacingLeft=4;spacingRight=4;overflow=hidden;rotatable=0;points=[[0,0.5],[1,0.5]];portConstraint=eastwest;fontSize=12;" parent="sWENWEqS_RTDNvCQsxlW-9" vertex="1">
          <mxGeometry y="56" width="160" height="30" as="geometry" />
        </mxCell>
        <mxCell id="sWENWEqS_RTDNvCQsxlW-12" value="Item 3" style="text;strokeColor=none;fillColor=none;spacingLeft=4;spacingRight=4;overflow=hidden;rotatable=0;points=[[0,0.5],[1,0.5]];portConstraint=eastwest;fontSize=12;" parent="sWENWEqS_RTDNvCQsxlW-9" vertex="1">
          <mxGeometry y="86" width="160" height="30" as="geometry" />
        </mxCell>
        <mxCell id="sWENWEqS_RTDNvCQsxlW-13" value="STAFF MANAGEMENT" style="swimlane;fontStyle=0;childLayout=stackLayout;horizontal=1;startSize=26;horizontalStack=0;resizeParent=1;resizeParentMax=0;resizeLast=0;collapsible=1;marginBottom=0;align=center;fontSize=14;" parent="1" vertex="1">
          <mxGeometry x="520" y="400" width="160" height="116" as="geometry" />
        </mxCell>
        <mxCell id="sWENWEqS_RTDNvCQsxlW-14" value="Item 1" style="text;strokeColor=none;fillColor=none;spacingLeft=4;spacingRight=4;overflow=hidden;rotatable=0;points=[[0,0.5],[1,0.5]];portConstraint=eastwest;fontSize=12;" parent="sWENWEqS_RTDNvCQsxlW-13" vertex="1">
          <mxGeometry y="26" width="160" height="30" as="geometry" />
        </mxCell>
        <mxCell id="sWENWEqS_RTDNvCQsxlW-15" value="Item 2" style="text;strokeColor=none;fillColor=none;spacingLeft=4;spacingRight=4;overflow=hidden;rotatable=0;points=[[0,0.5],[1,0.5]];portConstraint=eastwest;fontSize=12;" parent="sWENWEqS_RTDNvCQsxlW-13" vertex="1">
          <mxGeometry y="56" width="160" height="30" as="geometry" />
        </mxCell>
        <mxCell id="sWENWEqS_RTDNvCQsxlW-16" value="Item 3" style="text;strokeColor=none;fillColor=none;spacingLeft=4;spacingRight=4;overflow=hidden;rotatable=0;points=[[0,0.5],[1,0.5]];portConstraint=eastwest;fontSize=12;" parent="sWENWEqS_RTDNvCQsxlW-13" vertex="1">
          <mxGeometry y="86" width="160" height="30" as="geometry" />
        </mxCell>
        <mxCell id="xt4BQ-3MkPphJAfZo2jK-1" value="HOSPITALISATION" style="swimlane;fontStyle=0;childLayout=stackLayout;horizontal=1;startSize=26;horizontalStack=0;resizeParent=1;resizeParentMax=0;resizeLast=0;collapsible=1;marginBottom=0;align=center;fontSize=14;" vertex="1" parent="1">
          <mxGeometry x="280" y="230" width="160" height="176" as="geometry" />
        </mxCell>
        <mxCell id="xt4BQ-3MkPphJAfZo2jK-2" value="patient_id" style="text;strokeColor=none;fillColor=none;spacingLeft=4;spacingRight=4;overflow=hidden;rotatable=0;points=[[0,0.5],[1,0.5]];portConstraint=eastwest;fontSize=12;" vertex="1" parent="xt4BQ-3MkPphJAfZo2jK-1">
          <mxGeometry y="26" width="160" height="30" as="geometry" />
        </mxCell>
        <mxCell id="xt4BQ-3MkPphJAfZo2jK-10" value="room_id" style="text;strokeColor=none;fillColor=none;spacingLeft=4;spacingRight=4;overflow=hidden;rotatable=0;points=[[0,0.5],[1,0.5]];portConstraint=eastwest;fontSize=12;" vertex="1" parent="xt4BQ-3MkPphJAfZo2jK-1">
          <mxGeometry y="56" width="160" height="30" as="geometry" />
        </mxCell>
        <mxCell id="xt4BQ-3MkPphJAfZo2jK-3" value="lab_id" style="text;strokeColor=none;fillColor=none;spacingLeft=4;spacingRight=4;overflow=hidden;rotatable=0;points=[[0,0.5],[1,0.5]];portConstraint=eastwest;fontSize=12;" vertex="1" parent="xt4BQ-3MkPphJAfZo2jK-1">
          <mxGeometry y="86" width="160" height="30" as="geometry" />
        </mxCell>
        <mxCell id="xt4BQ-3MkPphJAfZo2jK-4" value="date_hospitalisation" style="text;strokeColor=none;fillColor=none;spacingLeft=4;spacingRight=4;overflow=hidden;rotatable=0;points=[[0,0.5],[1,0.5]];portConstraint=eastwest;fontSize=12;" vertex="1" parent="xt4BQ-3MkPphJAfZo2jK-1">
          <mxGeometry y="116" width="160" height="30" as="geometry" />
        </mxCell>
        <mxCell id="xt4BQ-3MkPphJAfZo2jK-5" value="date_discharge" style="text;strokeColor=none;fillColor=none;spacingLeft=4;spacingRight=4;overflow=hidden;rotatable=0;points=[[0,0.5],[1,0.5]];portConstraint=eastwest;fontSize=12;" vertex="1" parent="xt4BQ-3MkPphJAfZo2jK-1">
          <mxGeometry y="146" width="160" height="30" as="geometry" />
        </mxCell>
        <mxCell id="xt4BQ-3MkPphJAfZo2jK-6" value="ROOMS" style="swimlane;fontStyle=0;childLayout=stackLayout;horizontal=1;startSize=26;horizontalStack=0;resizeParent=1;resizeParentMax=0;resizeLast=0;collapsible=1;marginBottom=0;align=center;fontSize=14;" vertex="1" parent="1">
          <mxGeometry x="520" y="230" width="160" height="116" as="geometry" />
        </mxCell>
        <mxCell id="xt4BQ-3MkPphJAfZo2jK-7" value="room_id" style="text;strokeColor=none;fillColor=none;spacingLeft=4;spacingRight=4;overflow=hidden;rotatable=0;points=[[0,0.5],[1,0.5]];portConstraint=eastwest;fontSize=12;" vertex="1" parent="xt4BQ-3MkPphJAfZo2jK-6">
          <mxGeometry y="26" width="160" height="30" as="geometry" />
        </mxCell>
        <mxCell id="xt4BQ-3MkPphJAfZo2jK-8" value="room_type" style="text;strokeColor=none;fillColor=none;spacingLeft=4;spacingRight=4;overflow=hidden;rotatable=0;points=[[0,0.5],[1,0.5]];portConstraint=eastwest;fontSize=12;" vertex="1" parent="xt4BQ-3MkPphJAfZo2jK-6">
          <mxGeometry y="56" width="160" height="30" as="geometry" />
        </mxCell>
        <mxCell id="xt4BQ-3MkPphJAfZo2jK-9" value="room_status" style="text;strokeColor=none;fillColor=none;spacingLeft=4;spacingRight=4;overflow=hidden;rotatable=0;points=[[0,0.5],[1,0.5]];portConstraint=eastwest;fontSize=12;" vertex="1" parent="xt4BQ-3MkPphJAfZo2jK-6">
          <mxGeometry y="86" width="160" height="30" as="geometry" />
        </mxCell>
        <mxCell id="xt4BQ-3MkPphJAfZo2jK-12" value="" style="edgeStyle=entityRelationEdgeStyle;fontSize=12;html=1;endArrow=ERzeroToMany;endFill=1;rounded=0;exitX=1;exitY=0.5;exitDx=0;exitDy=0;" edge="1" parent="1" source="sWENWEqS_RTDNvCQsxlW-2" target="xt4BQ-3MkPphJAfZo2jK-2">
          <mxGeometry width="100" height="100" relative="1" as="geometry">
            <mxPoint x="350" y="320" as="sourcePoint" />
            <mxPoint x="450" y="220" as="targetPoint" />
          </mxGeometry>
        </mxCell>
        <mxCell id="xt4BQ-3MkPphJAfZo2jK-15" value="" style="edgeStyle=entityRelationEdgeStyle;fontSize=12;html=1;endArrow=ERoneToMany;startArrow=ERoneToMany;rounded=0;exitX=1.013;exitY=0.244;exitDx=0;exitDy=0;exitPerimeter=0;" edge="1" parent="1" source="xt4BQ-3MkPphJAfZo2jK-10">
          <mxGeometry width="100" height="100" relative="1" as="geometry">
            <mxPoint x="425" y="368" as="sourcePoint" />
            <mxPoint x="525" y="268" as="targetPoint" />
          </mxGeometry>
        </mxCell>
        <mxCell id="xt4BQ-3MkPphJAfZo2jK-17" value="LAB" style="swimlane;fontStyle=0;childLayout=stackLayout;horizontal=1;startSize=26;horizontalStack=0;resizeParent=1;resizeParentMax=0;resizeLast=0;collapsible=1;marginBottom=0;align=center;fontSize=14;" vertex="1" parent="1">
          <mxGeometry x="270" y="50" width="160" height="146" as="geometry" />
        </mxCell>
        <mxCell id="xt4BQ-3MkPphJAfZo2jK-18" value="lab_id" style="text;strokeColor=none;fillColor=none;spacingLeft=4;spacingRight=4;overflow=hidden;rotatable=0;points=[[0,0.5],[1,0.5]];portConstraint=eastwest;fontSize=12;" vertex="1" parent="xt4BQ-3MkPphJAfZo2jK-17">
          <mxGeometry y="26" width="160" height="30" as="geometry" />
        </mxCell>
        <mxCell id="xt4BQ-3MkPphJAfZo2jK-19" value="doctor_id" style="text;strokeColor=none;fillColor=none;spacingLeft=4;spacingRight=4;overflow=hidden;rotatable=0;points=[[0,0.5],[1,0.5]];portConstraint=eastwest;fontSize=12;" vertex="1" parent="xt4BQ-3MkPphJAfZo2jK-17">
          <mxGeometry y="56" width="160" height="30" as="geometry" />
        </mxCell>
        <mxCell id="xt4BQ-3MkPphJAfZo2jK-20" value="patient_id" style="text;strokeColor=none;fillColor=none;spacingLeft=4;spacingRight=4;overflow=hidden;rotatable=0;points=[[0,0.5],[1,0.5]];portConstraint=eastwest;fontSize=12;" vertex="1" parent="xt4BQ-3MkPphJAfZo2jK-17">
          <mxGeometry y="86" width="160" height="30" as="geometry" />
        </mxCell>
        <mxCell id="xt4BQ-3MkPphJAfZo2jK-21" value="date" style="text;strokeColor=none;fillColor=none;spacingLeft=4;spacingRight=4;overflow=hidden;rotatable=0;points=[[0,0.5],[1,0.5]];portConstraint=eastwest;fontSize=12;" vertex="1" parent="xt4BQ-3MkPphJAfZo2jK-17">
          <mxGeometry y="116" width="160" height="30" as="geometry" />
        </mxCell>
        <mxCell id="xt4BQ-3MkPphJAfZo2jK-23" value="" style="edgeStyle=entityRelationEdgeStyle;fontSize=12;html=1;endArrow=ERoneToMany;startArrow=ERoneToMany;rounded=0;entryX=0;entryY=0.5;entryDx=0;entryDy=0;exitX=1;exitY=0.5;exitDx=0;exitDy=0;" edge="1" parent="1" source="sWENWEqS_RTDNvCQsxlW-6" target="xt4BQ-3MkPphJAfZo2jK-18">
          <mxGeometry width="100" height="100" relative="1" as="geometry">
            <mxPoint x="390" y="250" as="sourcePoint" />
            <mxPoint x="490" y="150" as="targetPoint" />
          </mxGeometry>
        </mxCell>
        <mxCell id="xt4BQ-3MkPphJAfZo2jK-24" value="" style="edgeStyle=entityRelationEdgeStyle;fontSize=12;html=1;endArrow=ERoneToMany;startArrow=ERoneToMany;rounded=0;exitX=1;exitY=0.5;exitDx=0;exitDy=0;entryX=0;entryY=0.5;entryDx=0;entryDy=0;" edge="1" parent="1" source="sWENWEqS_RTDNvCQsxlW-2" target="xt4BQ-3MkPphJAfZo2jK-19">
          <mxGeometry width="100" height="100" relative="1" as="geometry">
            <mxPoint x="350" y="320" as="sourcePoint" />
            <mxPoint x="450" y="220" as="targetPoint" />
          </mxGeometry>
        </mxCell>
      </root>
    </mxGraphModel>
  </diagram>
  <diagram id="gjrQGbEaLeD0RNeDx0UM" name="Home">
    <mxGraphModel dx="1038" dy="579" grid="1" gridSize="10" guides="1" tooltips="1" connect="1" arrows="1" fold="1" page="1" pageScale="1" pageWidth="850" pageHeight="1100" math="0" shadow="0">
      <root>
        <mxCell id="0" />
        <mxCell id="1" parent="0" />
      </root>
    </mxGraphModel>
  </diagram>
  <diagram id="LyvUM1P9MsGWzhnrg17R" name="Appt">
    <mxGraphModel dx="1038" dy="657" grid="1" gridSize="10" guides="1" tooltips="1" connect="1" arrows="1" fold="1" page="1" pageScale="1" pageWidth="850" pageHeight="1100" math="0" shadow="0">
      <root>
        <mxCell id="0" />
        <mxCell id="1" parent="0" />
      </root>
    </mxGraphModel>
  </diagram>
</mxfile>
